# xmcd
# Track frame offsets:
# 150
# 14014
# 30368
# 44757
# 60671
# 76709
# 91751
# 107648
# 126732
# 137933
# 154704
# 168852
# 189426
# 207699
# 226269
#
# Disc length: 3206 seconds
# Revision: 0
# Processed by: cddbd v1.5.1PL0 Copyright (c) Steve Scherf et al.
# Submitted via: VisiTrax 2.9.10.228 - For more info visit www.synapsa.com
#
DISCID=c80c840f
DTITLE=Kershaw, Sammy - CB90032
DYEAR=1900
DGENRE=Karaoke
TTITLE0=Cadillac Style
TTITLE1=Yard Sale
TTITLE2=She Don't Know She's Beautiful
TTITLE3=Queen Of My Double Wide Trailer
TTITLE4=I Can't Reach Her Anymore
TTITLE5=National Working Woman's Holiday
TTITLE6=Third Rate Romance
TTITLE7=Southbound
TTITLE8=If You're Gonna Walk, I'm Gonna Crawl
TTITLE9=Meant To Be
TTITLE10=Vidalia
TTITLE11=Love Of My Life
TTITLE12=Matches
TTITLE13=Honky Tonk America
TTITLE14=One Day Left To Live
EXTD=
EXTT0=
EXTT1=
EXTT2=
EXTT3=
EXTT4=
EXTT5=
EXTT6=
EXTT7=
EXTT8=
EXTT9=
EXTT10=
EXTT11=
EXTT12=
EXTT13=
EXTT14=
PLAYORDER=
